<svg xmlns="http://www.w3.org/2000/svg" xmlns:xlink="http://www.w3.org/1999/xlink" width="275" height="282" xmlns:v="https://vecta.io/nano"><style><![CDATA[.B{fill:#fcb040}.C{fill:#387ed1}.D{fill:#ffc764}.E{fill:#569fe8}.F{fill:#1c61a5}]]></style><defs><path id="A" d="M0 .263h39.027V85.62H0z"/><path id="B" d="M.285.212h7.718v7.05H.285z"/></defs><g fill="none" fill-rule="evenodd"><path d="M66 162l68.892 2.619L205 192.599l-60.737.401z" class="E"/><path d="M135.542 164L117 249.028 177.086 275 205 192.3z" class="F"/><path d="M56 248.295L123.415 282 145 193.27 66.95 162z" class="C"/><path d="M144.544 193.404L123 282l53.955-6.647L205 193z" class="E"/><path d="M145 279l13.24-1.646L189 192l-13.283.168zM77 258.938L88.848 170 104 176.07 89.157 265zM37.98 156l-.184 2.849 2.204 1.77-2.722.702-.975 2.679-1.498-2.416L32 161.47l1.797-2.195-.76-2.75 2.608 1.06z" class="B"/><path d="M189 154.993l4.093-.986 1.526-4.007 2.181 3.678 4.2.246-2.746 3.258 1.068 4.159-3.879-1.665-3.539 2.324.35-4.286z" class="C"/><path d="M118.216 61.199c-.049-.96-.912-1.727-1.908-1.706-.504.01-.985.22-1.318.577a1.667 1.667 0 0 0-.458 1.232l3.494 76.298 1.172-.034-.982-76.31v-.057z" class="B"/><path d="M120.92 153.357c-.081-.961-.982-1.696-1.971-1.642-.5.028-.973.252-1.293.62-.306.35-.454.794-.415 1.253l1.914 22.524 1.172-.034.598-22.535-.005-.186zM256.385 95.846l-.501-.304.53.256c.226-.404.277-.872.144-1.317a1.827 1.827 0 0 0-.923-1.085c-.897-.456-2-.137-2.472.696l-37.819 66.861 1.012.593 40.029-65.7z" class="C"/><path d="M208.531 173.472c-.906-.423-2.008-.072-2.445.783l-9.624 18.661 1.63-.01 11.213-16.897.095-.16a1.67 1.67 0 0 0 .095-1.322 1.828 1.828 0 0 0-.964-1.055zm-42.896-18.245l-.063-.011c-.975-.155-1.904.454-2.09 1.384l-4.387 22.09 1.134.29 6.832-21.495.047-.18a1.69 1.69 0 0 0-.266-1.29 1.89 1.89 0 0 0-1.207-.788m-90.813 1.604c-.339-.9-1.382-1.397-2.33-1.1a1.79 1.79 0 0 0-1.079.91 1.67 1.67 0 0 0-.06 1.34l2.625 6.953 3.218 1.074-2.32-8.999-.054-.178z" class="B"/><path d="M156.529 105.122l14.996-89.933-.684-.114.695.05a1.99 1.99 0 0 0-.421-1.515 2.167 2.167 0 0 0-1.496-.786 2.268 2.268 0 0 0-.705.048c-.878.2-1.588.91-1.709 1.807l-12.051 90.237 1.375.206z" class="C"/><g transform="translate(0 36.505)"><mask id="C" fill="#fff"><use xlink:href="#A"/></mask><path d="M37.753 85.62l1.274-.553L4.212 1.542l-.024-.06C3.77.562 2.719.092 1.719.32A2.2 2.2 0 0 0 .141 1.654 1.986 1.986 0 0 0 .18 3.216L37.753 85.62z" mask="url(#C)" class="B"/></g><path d="M223.288 99.374a2.46 2.46 0 0 0 .188-.422 1.987 1.987 0 0 0-.162-1.59 2.089 2.089 0 0 0-1.337-1.005 2.271 2.271 0 0 0-1.055-.011c-.754.171-1.402.715-1.64 1.467l-5.704 17.978 9.705-16.405.005-.012zM97.822 118.747l-.214-18.39v-.014a2.223 2.223 0 0 0-.063-.456c-.278-1.1-1.437-1.765-2.594-1.502l-.05.012a2.26 2.26 0 0 0-1.384 1.016 2.035 2.035 0 0 0-.232 1.547l4.537 17.787z" class="B"/><path fill="#fa5751" d="M38.458 48.382c.937-.449 1.641-.905 2.126-1.621-.263-.639-.555-.984-1.008-1.269a4.56 4.56 0 0 1-2.106 1.58c.606.378.905.693.988 1.31"/><path d="M211.054 80.398c-.484-.91-1.098-1.854-2.168-2.377-.837.217-1.415.318-2.308.301.51.57.515 1.099.2 2.14 1.281-.308 2.553-.212 4.276-.064m35.967-30.466c-.84.036-1.512.152-2.1.532-.008.558.098.908.345 1.265.752-.4 1.232-.516 2.073-.507-.331-.475-.454-.804-.318-1.29m-71.738 70.111c-3.008 1.123-4.622 1.52-7.317 1.106.1 1.271-.033 2.073-.572 2.697 2.88.645 4.938.397 8.236-.514.195-1.182.037-2.225-.347-3.29" class="B"/><path d="M231.461 181.023c-3.008 1.123-4.622 1.52-7.317 1.105.1 1.272-.033 2.074-.572 2.698 2.88.644 4.938.396 8.236-.514.195-1.182.037-2.225-.347-3.29" class="C"/><path d="M69.61 131.055c.275-1.636.177-2.655-.542-4.395-1.842.96-3.094 1.172-4.54 1.028-.374 1.514-.372 2.592-.167 4.257 1.762-.675 3.125-.85 5.249-.89" class="B"/><g transform="translate(267.027 112.054)"><mask id="D" fill="#fff"><use xlink:href="#B"/></mask><path fill="#fa5751" d="M.285 3.609C2.11 5.434 3.763 6.711 5.849 7.261 7.13 6.121 7.7 5.151 8.003 3.855 5.537 2.98 4.278 2.136 2.555.212 2.16 1.946 1.67 2.903.285 3.609" mask="url(#D)"/></g><path d="M137.56 129.947c-.407-.053-.752-.205-1.094-.644-.8 1.109-1.165 1.914-1.637 3.13.569.557 1.007.727 1.334.816.199-1.383.629-2.172 1.398-3.302" class="C"/><path d="M206.942 40.858c-.971-.175-1.521-.16-2.427.39.087 1.642.02 2.622-.224 4.212.58-.118 1.008-.075 1.36.032.223-1.834.596-2.93 1.29-4.634" class="B"/><path d="M19.436 19.635c.813.611 1.178 1.185 1.2 2.4 1.181-.63 1.809-1.32 2.87-2.648-.053-.951-.373-1.394-1.233-2.046-.922 1.131-1.66 1.878-2.837 2.294" class="F"/><path d="M246.138 83.54c2.445-.147 3.71-.077 5.583.826.212-.949.488-1.504 1.02-1.84-1.955-1.111-3.511-1.39-6.12-1.462-.407.818-.527 1.614-.483 2.476" class="B"/><path d="M202.142.048c-1.243 1.48-2.09 2.231-3.773 3.223.476.83 1.026 1.455 1.839 1.824 1.19-.556 2.484-1.555 4.083-3.052-1.326-.464-1.927-.915-2.15-1.995" class="C"/><path d="M41.46 97.373c.416-.514.585-.887.678-1.633-.83-.028-1.305-.2-1.78-.536-.428.453-.64.828-.897 1.446.744.113 1.252.32 1.998.723M195.745 50.83l-51.458 28.411 3.825 19.399 49.364-29.34z" class="F"/><path d="M195.745 50.83l-57.532 4.254-19.25 1.423-68.88 32.779 94.204-10.045z" class="E"/><path d="M56.723 106.04l91.389-7.4-3.826-19.399-94.202 10.045z" class="C"/><path d="M72.724 86.836l19.048-1.816 6.624 17.645-16.899 1.369z" class="B"/><path d="M72.724 86.836l65.489-31.752 16.038-1.186-62.48 31.122z" class="D"/><path d="M169.608 65.507l1.62 19.393 11.044-6.563-1.44-19.273z" class="B"/><path d="M180.831 59.064l-84.218 8.079-12.926 6.151 85.921-7.787z" class="D"/><path d="M65.657 49.2s24.724 21.614 50.519 18.872c5.869-1.472 8.327-3.604 8.327-3.604l-40.43-18.776a43.476 43.476 0 0 1 8.686-22.643c2.085-2.748-1.101-6.376-4.102-4.671l-10.02 5.693-9.391 12.132-3.59 12.996z" class="B"/><path d="M122.045 66.6L95.901 32.107a2.861 2.861 0 0 0-2.27-1.131c-2.698-.013-8.806.464-15.647 4.359-9.223 5.25-12.327 13.864-12.327 13.864l3.589-12.996a28.344 28.344 0 0 1 5.168-10.134 36.391 36.391 0 0 1 17.173-11.9l6.088-1.984a5.33 5.33 0 0 1 6.445 2.733l23.003 47.277-5.078 4.405z" class="D"/><path d="M169.087 23.27s-11.569 30.713-35.602 40.462c-5.869 1.471-9.044.751-9.044.751l26.755-35.62a43.555 43.555 0 0 0-18.367-15.86c-3.137-1.439-2.045-6.139 1.406-6.051l11.525.29 14.016 6.266 9.311 9.762z" class="B"/><path d="M127.616 65.203l6.728-42.733a2.856 2.856 0 0 1 1.467-2.068c2.371-1.284 7.98-3.745 15.852-3.538 10.613.278 17.424 6.406 17.424 6.406l-9.31-9.762a28.402 28.402 0 0 0-9.35-6.495 36.438 36.438 0 0 0-20.765-2.39l-6.305 1.124a5.322 5.322 0 0 0-4.388 5.448l2.088 52.52 6.56 1.488z" class="D"/></g></svg>